<?xml version="1.0" encoding="UTF-8" standalone="no" ?>
<!DOCTYPE svg PUBLIC "-//W3C//DTD SVG 1.1//EN" "http://www.w3.org/Graphics/SVG/1.1/DTD/svg11.dtd">
<svg xmlns="http://www.w3.org/2000/svg" xmlns:xlink="http://www.w3.org/1999/xlink" version="1.1" width="200" height="45" viewBox="0 0 200 45" xml:space="preserve">
<desc>Created with Fabric.js 5.2.4</desc>
<defs>
</defs>
<g transform="matrix(1 0 0 1 100 22.5)" id="41880273-e25f-47b1-b223-8e0ac084fb34"  >
<rect style="stroke: none; stroke-width: 1; stroke-dasharray: none; stroke-linecap: butt; stroke-dashoffset: 0; stroke-linejoin: miter; stroke-miterlimit: 4; fill: rgb(255,255,255); fill-rule: nonzero; opacity: 1; visibility: hidden;" vector-effect="non-scaling-stroke"  x="-100" y="-22.5" rx="0" ry="0" width="200" height="45" />
</g>
<g transform="matrix(Infinity NaN NaN Infinity 0 0)" id="a9caf2f1-b5a6-4b35-b362-50633fa04680"  >
</g>
<g transform="matrix(0.87 0 0 0.87 102 36.5)"  >
<g style="" vector-effect="non-scaling-stroke"   >
		<g transform="matrix(1 0 0 1 -2 -16)"  >
<rect style="stroke: none; stroke-width: 1; stroke-dasharray: none; stroke-linecap: butt; stroke-dashoffset: 0; stroke-linejoin: miter; stroke-miterlimit: 4; fill: rgb(255,255,255); fill-rule: nonzero; opacity: 1; visibility: hidden;" vector-effect="non-scaling-stroke"  x="-100" y="-23" rx="0" ry="0" width="200" height="46" />
</g>
		<g transform="matrix(0.82 0 0 0.82 -65.6 0)"  >
<rect style="stroke: none; stroke-width: 1; stroke-dasharray: none; stroke-linecap: butt; stroke-dashoffset: 0; stroke-linejoin: miter; stroke-miterlimit: 4; fill: rgb(255,255,255); fill-opacity: 0; fill-rule: nonzero; opacity: 1;" vector-effect="non-scaling-stroke"  x="-50" y="-50" rx="0" ry="0" width="100" height="100" />
</g>
		<g transform="matrix(0.82 0 0 0.82 0 -16.4)"  >
<rect style="stroke: none; stroke-width: 1; stroke-dasharray: none; stroke-linecap: butt; stroke-dashoffset: 0; stroke-linejoin: miter; stroke-miterlimit: 4; fill: rgb(255,255,255); fill-rule: nonzero; opacity: 1; visibility: hidden;" vector-effect="non-scaling-stroke"  x="-130" y="-30" rx="0" ry="0" width="260" height="60" />
</g>
		<g transform="matrix(0.22 0 0 -0.22 -82.13 -17.08)"  >
<path style="stroke: none; stroke-width: 0.11; stroke-dasharray: none; stroke-linecap: butt; stroke-dashoffset: 0; stroke-linejoin: miter; stroke-miterlimit: 10; fill: rgb(29,41,56); fill-rule: evenodd; opacity: 1;" vector-effect="non-scaling-stroke"  transform=" translate(-69.09, -335.49)" d="M 79.051 274.724 C 90.247 303.19 77.503 325.759 62.628 347.807 C 54.727 344.502 47.155 342.657 39.305 345.461 C 41.946 348.882 41.227 354.899 51.487 357.626 C 47.496 358.391 43.468 359.66 39.394 361.617 C 18.931 374.676 34.89 398.04 29.023 411.616 C 37.459 405.597 36.469 402.291 36.381 389.624 C 36.964 358.699 78.855 371.399 109.62 372.15 L 109.555 361.181 C 104.221 361.557 98.914 361.165 93.606 360.477 C 85.717 358.668 78.551 355.255 71.774 352.005 C 88.206 328.679 96.732 305.974 90.051 277.253 C 93.416 272.905 98.559 269.612 109.114 267.351 L 109.08 259.367 C 97.651 260.402 87.598 265.402 79.051 274.724 Z" stroke-linecap="round" />
</g>
		<g transform="matrix(0.22 0 0 -0.22 -63.6 -17.1)"  >
<path style="stroke: none; stroke-width: 0.5; stroke-dasharray: none; stroke-linecap: butt; stroke-dashoffset: 0; stroke-linejoin: miter; stroke-miterlimit: 10; fill: rgb(52,107,232); fill-rule: evenodd; opacity: 1;" vector-effect="non-scaling-stroke"  transform=" translate(-157.33, -335.49)" d="M 116.891 259.367 L 116.878 262.314 L 116.802 262.314 L 116.802 364.934 L 116.845 364.934 L 116.802 372.15 C 147.567 371.399 189.458 358.699 190.04 389.624 C 189.952 402.291 188.963 405.597 197.4 411.616 C 191.53 398.04 207.489 374.676 187.028 361.617 C 182.952 359.66 178.926 358.391 174.934 357.626 C 185.193 354.899 184.476 348.882 187.117 345.461 C 179.147 342.613 171.467 344.559 163.434 347.951 C 160.453 343.537 157.552 339.098 154.915 334.598 C 151.852 336.589 148.753 338.08 145.545 338.394 C 148.121 342.997 151.059 347.57 154.305 352.17 C 147.629 355.367 140.571 358.702 132.814 360.477 C 130.806 360.735 128.8 360.953 126.791 361.102 L 126.791 318.621 L 146.834 318.621 C 145.539 315.232 144.537 311.899 143.828 308.626 L 126.791 308.626 L 126.791 270.4 C 131.084 272.284 133.843 274.569 135.92 277.253 C 134.981 281.278 134.349 285.182 133.987 288.986 C 136.809 289.303 139.753 290.492 142.795 292.398 C 143.198 286.748 144.501 280.875 146.923 274.724 C 138.37 265.402 128.321 260.402 116.891 259.367 Z" stroke-linecap="round" />
</g>
		<g transform="matrix(0.22 0 0 -0.22 -38.32 -15.43)"  >
<path style="stroke: none; stroke-width: 3.14; stroke-dasharray: none; stroke-linecap: round; stroke-dashoffset: 0; stroke-linejoin: round; stroke-miterlimit: 10; fill: rgb(29,41,56); fill-rule: nonzero; opacity: 1;" vector-effect="non-scaling-stroke"  transform=" translate(-278.49, -325.98)" d="M 253.614 370.997 L 303.372 370.997 L 303.372 354.104 L 286.971 354.104 L 286.971 280.958 L 269.585 280.958 L 269.585 354.104 L 253.614 354.104 L 253.614 370.997 Z" stroke-linecap="round" />
</g>
		<g transform="matrix(0.22 0 0 -0.22 -28.17 -13.28)"  >
<path style="stroke: none; stroke-width: 3.14; stroke-dasharray: none; stroke-linecap: round; stroke-dashoffset: 0; stroke-linejoin: round; stroke-miterlimit: 10; fill: rgb(29,41,56); fill-rule: nonzero; opacity: 1;" vector-effect="non-scaling-stroke"  transform=" translate(-327.24, -315.11)" d="M 309.371 347.551 L 323.691 347.551 L 323.691 339.171 C 325.244 342.478 327.305 344.985 329.874 346.697 C 332.443 348.405 335.262 349.267 338.317 349.267 C 340.484 349.267 342.746 348.691 345.112 347.551 L 339.915 333.166 C 337.955 334.149 336.341 334.634 335.078 334.634 C 332.503 334.634 330.336 333.049 328.559 329.865 C 326.781 326.682 325.896 320.437 325.896 311.134 L 325.959 307.889 L 325.959 280.958 L 309.371 280.958 L 309.371 347.551 Z" stroke-linecap="round" />
</g>
		<g transform="matrix(0.22 0 0 -0.22 -15.92 -13.09)"  >
<path style="stroke: none; stroke-width: 3.14; stroke-dasharray: none; stroke-linecap: round; stroke-dashoffset: 0; stroke-linejoin: round; stroke-miterlimit: 10; fill: rgb(29,41,56); fill-rule: nonzero; opacity: 1;" vector-effect="non-scaling-stroke"  transform=" translate(-384.77, -314.25)" d="M 402.587 347.551 L 419.237 347.551 L 419.237 280.958 L 402.587 280.958 L 402.587 287.996 C 399.32 284.895 396.043 282.659 392.761 281.288 C 389.476 279.927 385.915 279.241 382.081 279.241 C 373.465 279.241 366.024 282.582 359.74 289.245 C 353.456 295.925 350.312 304.219 350.312 314.133 C 350.312 324.414 353.35 332.843 359.433 339.407 C 365.517 345.982 372.896 349.267 381.585 349.267 C 385.592 349.267 389.347 348.511 392.851 346.999 C 396.359 345.493 399.605 343.23 402.587 340.209 L 402.587 347.551 Z M 385.016 333.842 C 379.833 333.842 375.527 332.011 372.106 328.366 C 368.676 324.714 366.962 320.029 366.962 314.315 C 366.962 308.566 368.705 303.829 372.198 300.115 C 375.68 296.398 379.98 294.546 385.079 294.546 C 390.345 294.546 394.704 296.368 398.173 300.021 C 401.64 303.673 403.38 308.458 403.38 314.379 C 403.38 320.17 401.64 324.866 398.173 328.451 C 394.704 332.048 390.322 333.842 385.016 333.842 Z" stroke-linecap="round" />
</g>
		<g transform="matrix(0.22 0 0 -0.22 1.36 -13.09)"  >
<path style="stroke: none; stroke-width: 3.14; stroke-dasharray: none; stroke-linecap: round; stroke-dashoffset: 0; stroke-linejoin: round; stroke-miterlimit: 10; fill: rgb(29,41,56); fill-rule: nonzero; opacity: 1;" vector-effect="non-scaling-stroke"  transform=" translate(-467.09, -314.25)" d="M 501.309 334.088 L 487.415 326.438 C 484.806 329.167 482.224 331.065 479.67 332.127 C 477.125 333.187 474.133 333.719 470.704 333.719 C 464.461 333.719 459.415 331.848 455.556 328.12 C 451.702 324.383 449.771 319.601 449.771 313.763 C 449.771 308.096 451.624 303.46 455.34 299.868 C 459.053 296.278 463.929 294.484 469.972 294.484 C 477.44 294.484 483.254 297.037 487.415 302.136 L 500.581 293.138 C 493.435 283.873 483.353 279.241 470.334 279.241 C 458.623 279.241 449.455 282.713 442.818 289.649 C 436.191 296.585 432.876 304.705 432.876 314.008 C 432.876 320.453 434.492 326.389 437.716 331.819 C 440.937 337.247 445.435 341.513 451.209 344.616 C 456.985 347.714 463.445 349.267 470.581 349.267 C 477.194 349.267 483.131 347.952 488.399 345.314 C 493.657 342.684 497.965 338.94 501.309 334.088 Z" stroke-linecap="round" />
</g>
		<g transform="matrix(0.22 0 0 -0.22 18.61 -15.68)"  >
<path style="stroke: none; stroke-width: 3.14; stroke-dasharray: none; stroke-linecap: round; stroke-dashoffset: 0; stroke-linejoin: round; stroke-miterlimit: 10; fill: rgb(29,41,56); fill-rule: nonzero; opacity: 1;" vector-effect="non-scaling-stroke"  transform=" translate(-549.36, -327.11)" d="M 516.488 373.259 L 533.199 373.259 L 533.199 320.066 L 557.807 347.551 L 578.738 347.551 L 550.093 315.602 L 582.228 280.958 L 561.475 280.958 L 533.199 311.623 L 533.199 280.958 L 516.488 280.958 L 516.488 373.259 Z" stroke-linecap="round" />
</g>
		<g transform="matrix(0.22 0 0 -0.22 33.33 -23.56)"  >
<path style="stroke: none; stroke-width: 3.14; stroke-dasharray: none; stroke-linecap: round; stroke-dashoffset: 0; stroke-linejoin: round; stroke-miterlimit: 10; fill: rgb(52,107,232); fill-rule: nonzero; opacity: 1;" vector-effect="non-scaling-stroke"  transform=" translate(-619.52, -362.61)" d="M 590.981 354.226 L 590.981 370.997 L 648.062 370.997 L 648.062 354.226 L 590.981 354.226 Z" stroke-linecap="round" />
</g>
		<g transform="matrix(0.22 0 0 -0.22 31.45 -16.65)"  >
<path style="stroke: none; stroke-width: 3.14; stroke-dasharray: none; stroke-linecap: round; stroke-dashoffset: 0; stroke-linejoin: round; stroke-miterlimit: 10; fill: rgb(29,41,56); fill-rule: nonzero; opacity: 1;" vector-effect="non-scaling-stroke"  transform=" translate(-611.05, -329.71)" d="M 613.774 321.475 L 613.774 321.484 L 590.981 321.484 L 590.981 337.945 L 604.882 337.945 L 604.882 337.942 L 631.122 337.942 L 631.122 321.475 L 613.774 321.475 Z" stroke-linecap="round" />
</g>
		<g transform="matrix(0.22 0 0 -0.22 32.73 -8.19)"  >
<path style="stroke: none; stroke-width: 3.14; stroke-dasharray: none; stroke-linecap: round; stroke-dashoffset: 0; stroke-linejoin: round; stroke-miterlimit: 10; fill: rgb(52,107,232); fill-rule: nonzero; opacity: 1;" vector-effect="non-scaling-stroke"  transform=" translate(-616.82, -289.37)" d="M 590.981 280.958 L 590.981 297.791 L 642.656 297.791 L 642.656 280.958 L 590.981 280.958 Z" stroke-linecap="round" />
</g>
		<g transform="matrix(0.22 0 0 -0.22 47.25 -15.49)"  >
<path style="stroke: none; stroke-width: 3.14; stroke-dasharray: none; stroke-linecap: round; stroke-dashoffset: 0; stroke-linejoin: round; stroke-miterlimit: 10; fill: rgb(52,107,232); fill-rule: nonzero; opacity: 1;" vector-effect="non-scaling-stroke"  transform=" translate(-685.67, -326.25)" d="M 703.481 373.259 L 720.131 373.259 L 720.131 280.958 L 703.481 280.958 L 703.481 287.996 C 700.213 284.895 696.937 282.659 693.656 281.288 C 690.371 279.927 686.811 279.241 682.973 279.241 C 674.36 279.241 666.917 282.582 660.635 289.245 C 654.352 295.925 651.206 304.219 651.206 314.133 C 651.206 324.414 654.242 332.843 660.328 339.407 C 666.41 345.982 673.791 349.267 682.481 349.267 C 686.487 349.267 690.242 348.511 693.746 346.999 C 697.254 345.493 700.499 343.23 703.481 340.209 L 703.481 373.259 Z M 685.911 333.842 C 680.727 333.842 676.421 332.011 672.998 328.366 C 669.571 324.714 667.857 320.029 667.857 314.315 C 667.857 308.566 669.6 303.829 673.093 300.115 C 676.573 296.398 680.872 294.546 685.972 294.546 C 691.24 294.546 695.599 296.368 699.068 300.021 C 702.535 303.673 704.276 308.458 704.276 314.379 C 704.276 320.17 702.535 324.866 699.068 328.451 C 695.599 332.048 691.218 333.842 685.911 333.842 Z" stroke-linecap="round" />
</g>
		<g transform="matrix(0.22 0 0 -0.22 64.67 -10.39)"  >
<path style="stroke: none; stroke-width: 3.14; stroke-dasharray: none; stroke-linecap: round; stroke-dashoffset: 0; stroke-linejoin: round; stroke-miterlimit: 10; fill: rgb(52,107,232); fill-rule: nonzero; opacity: 1;" vector-effect="non-scaling-stroke"  transform=" translate(-768.48, -302.07)" d="M 786.233 347.551 L 802.88 347.551 L 802.88 290.501 C 802.88 279.241 800.611 270.961 796.082 265.657 C 790 258.473 780.842 254.883 768.598 254.883 C 762.071 254.883 756.58 255.698 752.136 257.329 C 747.691 258.967 743.93 261.367 740.869 264.526 C 737.809 267.686 735.547 271.53 734.078 276.06 L 752.504 276.06 C 754.135 274.183 756.235 272.768 758.81 271.807 C 761.376 270.848 764.418 270.369 767.929 270.369 C 772.412 270.369 776.029 271.06 778.758 272.446 C 781.494 273.839 783.426 275.63 784.546 277.837 C 785.672 280.036 786.233 283.835 786.233 289.219 C 783.294 286.281 780.211 284.173 776.988 282.879 C 773.765 281.596 770.116 280.958 766.032 280.958 C 757.095 280.958 749.545 284.18 743.385 290.633 C 737.225 297.075 734.139 305.237 734.139 315.108 C 734.139 325.682 737.4 334.164 743.93 340.578 C 749.852 346.369 756.912 349.267 765.107 349.267 C 768.943 349.267 772.569 348.562 775.974 347.153 C 779.38 345.745 782.802 343.431 786.233 340.209 L 786.233 347.551 Z M 768.906 333.655 C 763.647 333.655 759.296 331.896 755.872 328.366 C 752.443 324.835 750.727 320.39 750.727 315.047 C 750.727 309.5 752.48 304.949 755.989 301.399 C 759.504 297.852 763.909 296.078 769.213 296.078 C 774.398 296.078 778.666 297.806 782.034 301.273 C 785.402 304.743 787.086 309.294 787.086 314.933 C 787.086 320.477 785.394 324.983 782.003 328.451 C 778.62 331.928 774.252 333.655 768.906 333.655 Z" stroke-linecap="round" />
</g>
		<g transform="matrix(0.22 0 0 -0.22 82.12 -13.09)"  >
<path style="stroke: none; stroke-width: 3.14; stroke-dasharray: none; stroke-linecap: round; stroke-dashoffset: 0; stroke-linejoin: round; stroke-miterlimit: 10; fill: rgb(52,107,232); fill-rule: nonzero; opacity: 1;" vector-effect="non-scaling-stroke"  transform=" translate(-851.59, -314.25)" d="M 886.485 309.417 L 832.803 309.417 C 833.578 304.689 835.655 300.92 839.014 298.122 C 842.382 295.332 846.682 293.931 851.903 293.931 C 858.148 293.931 863.514 296.115 867.997 300.485 L 882.079 293.869 C 878.571 288.893 874.365 285.21 869.466 282.825 C 864.57 280.434 858.756 279.241 852.026 279.241 C 841.575 279.241 833.073 282.533 826.503 289.125 C 819.927 295.716 816.645 303.973 816.645 313.887 C 816.645 324.045 819.92 332.481 826.466 339.193 C 833.018 345.907 841.23 349.267 851.104 349.267 C 861.592 349.267 870.121 345.907 876.695 339.193 C 883.264 332.481 886.544 323.621 886.544 312.603 L 886.485 309.417 Z M 869.712 322.576 C 868.614 326.289 866.437 329.312 863.191 331.635 C 859.955 333.963 856.186 335.126 851.903 335.126 C 847.251 335.126 843.168 333.818 839.659 331.209 C 837.453 329.582 835.415 326.7 833.54 322.576 L 869.712 322.576 Z" stroke-linecap="round" />
</g>
</g>
</g>
</svg>